version 1
nodes
0 "root" -1
end
skeleton
time 0
0 0 0 0 0 0 0
end
triangles
dummy
0 31.808 -39.76 36.7308 1 0 -4.37114e-008 0.5 0.5 1 0 1
0 31.808 39.76 36.7308 1 0 -4.37114e-008 0.5 1.125 1 0 1
0 -31.808 39.76 36.7308 1 0 -4.37114e-008 0 1.125 1 0 1
dummy
0 -31.808 -39.76 36.7308 1 0 -4.37114e-008 0 0.5 1 0 1
0 31.808 -39.76 36.7308 1 0 -4.37114e-008 0.5 0.5 1 0 1
0 -31.808 39.76 36.7308 1 0 -4.37114e-008 0 1.125 1 0 1
dummy
0 31.808 39.76 -36.7308 1 0 -4.37114e-008 0.5 1.125 1 0 1
0 31.808 -39.76 -36.7308 1 0 -4.37114e-008 0.5 0.5 1 0 1
0 -31.808 -39.76 -36.7308 1 0 -4.37114e-008 0 0.5 1 0 1
dummy
0 -31.808 39.76 -36.7308 1 0 -4.37114e-008 0 1.125 1 0 1
0 31.808 39.76 -36.7308 1 0 -4.37114e-008 0.5 1.125 1 0 1
0 -31.808 -39.76 -36.7308 1 0 -4.37114e-008 0 0.5 1 0 1
dummy
0 -31.808 -39.76 -36.7308 1 0 -4.37114e-008 0.5 0.507813 1 0 1
0 -31.808 -39.76 36.7308 1 0 -4.37114e-008 0.5 1.0852 1 0 1
0 -31.808 39.76 36.7308 1 0 -4.37114e-008 1.125 1.0852 1 0 1
dummy
0 -31.808 39.76 -36.7308 1 0 -4.37114e-008 1.125 0.507813 1 0 1
0 -31.808 -39.76 -36.7308 1 0 -4.37114e-008 0.5 0.507813 1 0 1
0 -31.808 39.76 36.7308 1 0 -4.37114e-008 1.125 1.0852 1 0 1
dummy
0 31.808 -39.76 36.7308 1 0 -4.37114e-008 0.5 1.0852 1 0 1
0 31.808 -39.76 -36.7308 1 0 -4.37114e-008 0.5 0.507813 1 0 1
0 31.808 39.76 -36.7308 1 0 -4.37114e-008 1.125 0.507813 1 0 1
dummy
0 31.808 39.76 36.7308 1 0 -4.37114e-008 1.125 1.0852 1 0 1
0 31.808 -39.76 36.7308 1 0 -4.37114e-008 0.5 1.0852 1 0 1
0 31.808 39.76 -36.7308 1 0 -4.37114e-008 1.125 0.507813 1 0 1
dummy
0 -31.808 39.76 -36.7308 1 0 -4.37114e-008 0 0.507813 1 0 1
0 -31.808 39.76 36.7308 1 0 -4.37114e-008 0 1.0852 1 0 1
0 31.808 39.76 36.7308 1 0 -4.37114e-008 0.5 1.0852 1 0 1
dummy
0 31.808 39.76 -36.7308 1 0 -4.37114e-008 0.5 0.507813 1 0 1
0 -31.808 39.76 -36.7308 1 0 -4.37114e-008 0 0.507813 1 0 1
0 31.808 39.76 36.7308 1 0 -4.37114e-008 0.5 1.0852 1 0 1
dummy
0 -31.808 -39.76 36.7308 1 0 -4.37114e-008 0 1.0852 1 0 1
0 -31.808 -39.76 -36.7308 1 0 -4.37114e-008 0 0.507813 1 0 1
0 31.808 -39.76 -36.7308 1 0 -4.37114e-008 0.5 0.507813 1 0 1
dummy
0 31.808 -39.76 36.7308 1 0 -4.37114e-008 0.5 1.0852 1 0 1
0 -31.808 -39.76 36.7308 1 0 -4.37114e-008 0 1.0852 1 0 1
0 31.808 -39.76 -36.7308 1 0 -4.37114e-008 0.5 0.507813 1 0 1
end
