version 1
nodes
0 "root" -1
end
skeleton
time 0
0 0 0 0 0 0 0
end
triangles
dev_measure_hs5
0 31.808 -39.76 36.7308 0 0 1 0.5 0.5 1 0 1
0 31.808 39.76 36.7308 0 0 1 0.5 1.125 1 0 1
0 -31.808 39.76 36.7308 0 0 1 0 1.125 1 0 1
dev_measure_hs5
0 -31.808 -39.76 36.7308 0 0 1 0 0.5 1 0 1
0 31.808 -39.76 36.7308 0 0 1 0.5 0.5 1 0 1
0 -31.808 39.76 36.7308 0 0 1 0 1.125 1 0 1
dev_measure_hs5
0 31.808 39.76 -36.7308 0 0 -1 0.5 1.125 1 0 1
0 31.808 -39.76 -36.7308 0 0 -1 0.5 0.5 1 0 1
0 -31.808 -39.76 -36.7308 0 0 -1 0 0.5 1 0 1
dev_measure_hs5
0 -31.808 39.76 -36.7308 0 0 -1 0 1.125 1 0 1
0 31.808 39.76 -36.7308 0 0 -1 0.5 1.125 1 0 1
0 -31.808 -39.76 -36.7308 0 0 -1 0 0.5 1 0 1
dev_measure_hs5
0 -31.808 -39.76 -36.7308 -1 0 0 0.5 0.507813 1 0 1
0 -31.808 -39.76 36.7308 -1 0 0 0.5 1.0852 1 0 1
0 -31.808 39.76 36.7308 -1 0 0 1.125 1.0852 1 0 1
dev_measure_hs5
0 -31.808 39.76 -36.7308 -1 0 0 1.125 0.507813 1 0 1
0 -31.808 -39.76 -36.7308 -1 0 0 0.5 0.507813 1 0 1
0 -31.808 39.76 36.7308 -1 0 0 1.125 1.0852 1 0 1
dev_measure_hs5
0 31.808 -39.76 36.7308 1 0 0 0.5 1.0852 1 0 1
0 31.808 -39.76 -36.7308 1 0 0 0.5 0.507813 1 0 1
0 31.808 39.76 -36.7308 1 0 0 1.125 0.507813 1 0 1
dev_measure_hs5
0 31.808 39.76 36.7308 1 0 0 1.125 1.0852 1 0 1
0 31.808 -39.76 36.7308 1 0 0 0.5 1.0852 1 0 1
0 31.808 39.76 -36.7308 1 0 0 1.125 0.507813 1 0 1
dev_measure_hs5
0 -31.808 39.76 -36.7308 0 1 0 0 0.507813 1 0 1
0 -31.808 39.76 36.7308 0 1 0 0 1.0852 1 0 1
0 31.808 39.76 36.7308 0 1 0 0.5 1.0852 1 0 1
dev_measure_hs5
0 31.808 39.76 -36.7308 0 1 0 0.5 0.507813 1 0 1
0 -31.808 39.76 -36.7308 0 1 0 0 0.507813 1 0 1
0 31.808 39.76 36.7308 0 1 0 0.5 1.0852 1 0 1
dev_measure_hs5
0 -31.808 -39.76 36.7308 0 -1 0 0 1.0852 1 0 1
0 -31.808 -39.76 -36.7308 0 -1 0 0 0.507813 1 0 1
0 31.808 -39.76 -36.7308 0 -1 0 0.5 0.507813 1 0 1
dev_measure_hs5
0 31.808 -39.76 36.7308 0 -1 0 0.5 1.0852 1 0 1
0 -31.808 -39.76 36.7308 0 -1 0 0 1.0852 1 0 1
0 31.808 -39.76 -36.7308 0 -1 0 0.5 0.507813 1 0 1
end
